<mxfile host="app.diagrams.net" modified="2022-03-17T13:52:45.941Z" agent="5.0 (Windows NT 10.0; Win64; x64) AppleWebKit/537.36 (KHTML, like Gecko) Chrome/99.0.4844.51 Safari/537.36" etag="IYqqLID0zf1Ak3yb_1AA" version="17.1.3" type="github">
  <diagram id="ZUWflOWDKouPBSWnlvdi" name="Page-1">
    <mxGraphModel dx="868" dy="482" grid="1" gridSize="10" guides="1" tooltips="1" connect="1" arrows="1" fold="1" page="1" pageScale="1" pageWidth="827" pageHeight="1169" math="0" shadow="0">
      <root>
        <mxCell id="0" />
        <mxCell id="1" parent="0" />
        <mxCell id="QSPKhglQrRxLIh65UJ3t-1" value="&lt;div style=&quot;text-align: justify&quot;&gt;INICIO&lt;/div&gt;" style="whiteSpace=wrap;html=1;sketch=1;" vertex="1" parent="1">
          <mxGeometry x="160" y="20" width="120" height="60" as="geometry" />
        </mxCell>
        <mxCell id="QSPKhglQrRxLIh65UJ3t-2" value="FIM" style="whiteSpace=wrap;html=1;sketch=1;" vertex="1" parent="1">
          <mxGeometry x="360" y="430" width="120" height="60" as="geometry" />
        </mxCell>
        <mxCell id="QSPKhglQrRxLIh65UJ3t-3" value="4, 8" style="shape=parallelogram;perimeter=parallelogramPerimeter;whiteSpace=wrap;html=1;fixedSize=1;sketch=1;" vertex="1" parent="1">
          <mxGeometry x="150" y="150" width="120" height="60" as="geometry" />
        </mxCell>
        <mxCell id="QSPKhglQrRxLIh65UJ3t-4" value="4" style="shape=document;whiteSpace=wrap;html=1;boundedLbl=1;sketch=1;" vertex="1" parent="1">
          <mxGeometry x="245" y="290" width="120" height="80" as="geometry" />
        </mxCell>
        <mxCell id="QSPKhglQrRxLIh65UJ3t-5" value="4&amp;gt;8" style="rhombus;whiteSpace=wrap;html=1;sketch=1;" vertex="1" parent="1">
          <mxGeometry x="390" y="125" width="110" height="110" as="geometry" />
        </mxCell>
        <mxCell id="QSPKhglQrRxLIh65UJ3t-7" value="" style="endArrow=classic;html=1;entryX=0.5;entryY=0;entryDx=0;entryDy=0;exitX=0.5;exitY=1;exitDx=0;exitDy=0;sketch=1;" edge="1" parent="1" source="QSPKhglQrRxLIh65UJ3t-1" target="QSPKhglQrRxLIh65UJ3t-3">
          <mxGeometry width="50" height="50" relative="1" as="geometry">
            <mxPoint x="140" y="110" as="sourcePoint" />
            <mxPoint x="140" y="100" as="targetPoint" />
          </mxGeometry>
        </mxCell>
        <mxCell id="QSPKhglQrRxLIh65UJ3t-8" value="" style="endArrow=classic;html=1;exitX=1;exitY=0.5;exitDx=0;exitDy=0;entryX=0;entryY=0.5;entryDx=0;entryDy=0;sketch=1;" edge="1" parent="1" source="QSPKhglQrRxLIh65UJ3t-3" target="QSPKhglQrRxLIh65UJ3t-5">
          <mxGeometry width="50" height="50" relative="1" as="geometry">
            <mxPoint x="160" y="210" as="sourcePoint" />
            <mxPoint x="210" y="160" as="targetPoint" />
          </mxGeometry>
        </mxCell>
        <mxCell id="QSPKhglQrRxLIh65UJ3t-9" value="" style="endArrow=classic;html=1;entryX=0.5;entryY=0;entryDx=0;entryDy=0;startArrow=none;sketch=1;" edge="1" parent="1" source="QSPKhglQrRxLIh65UJ3t-14" target="QSPKhglQrRxLIh65UJ3t-4">
          <mxGeometry width="50" height="50" relative="1" as="geometry">
            <mxPoint x="340" y="230" as="sourcePoint" />
            <mxPoint x="320" y="270" as="targetPoint" />
          </mxGeometry>
        </mxCell>
        <mxCell id="QSPKhglQrRxLIh65UJ3t-15" value="" style="endArrow=classic;html=1;startArrow=none;sketch=1;" edge="1" parent="1" source="QSPKhglQrRxLIh65UJ3t-16">
          <mxGeometry width="50" height="50" relative="1" as="geometry">
            <mxPoint x="490" y="320" as="sourcePoint" />
            <mxPoint x="550" y="280" as="targetPoint" />
            <Array as="points">
              <mxPoint x="510" y="240" />
            </Array>
          </mxGeometry>
        </mxCell>
        <mxCell id="QSPKhglQrRxLIh65UJ3t-16" value="VERDADEIRO" style="text;html=1;align=center;verticalAlign=middle;resizable=0;points=[];autosize=1;strokeColor=none;fillColor=none;rotation=0;sketch=1;" vertex="1" parent="1">
          <mxGeometry x="480" y="220" width="90" height="20" as="geometry" />
        </mxCell>
        <mxCell id="QSPKhglQrRxLIh65UJ3t-17" value="" style="endArrow=none;html=1;sketch=1;" edge="1" parent="1" source="QSPKhglQrRxLIh65UJ3t-5" target="QSPKhglQrRxLIh65UJ3t-16">
          <mxGeometry width="50" height="50" relative="1" as="geometry">
            <mxPoint x="473.5999999999999" y="206.39999999999998" as="sourcePoint" />
            <mxPoint x="550" y="280" as="targetPoint" />
            <Array as="points" />
          </mxGeometry>
        </mxCell>
        <mxCell id="QSPKhglQrRxLIh65UJ3t-14" value="FALSO" style="text;html=1;align=center;verticalAlign=middle;resizable=0;points=[];autosize=1;strokeColor=none;fillColor=none;rotation=0;sketch=1;" vertex="1" parent="1">
          <mxGeometry x="340" y="220" width="50" height="20" as="geometry" />
        </mxCell>
        <mxCell id="QSPKhglQrRxLIh65UJ3t-18" value="" style="endArrow=none;html=1;entryX=0.5;entryY=0;entryDx=0;entryDy=0;sketch=1;" edge="1" parent="1" source="QSPKhglQrRxLIh65UJ3t-5" target="QSPKhglQrRxLIh65UJ3t-14">
          <mxGeometry width="50" height="50" relative="1" as="geometry">
            <mxPoint x="414.20000000000005" y="204.20000000000005" as="sourcePoint" />
            <mxPoint x="305" y="290" as="targetPoint" />
          </mxGeometry>
        </mxCell>
        <mxCell id="QSPKhglQrRxLIh65UJ3t-20" value="" style="endArrow=classic;html=1;entryX=0.25;entryY=0;entryDx=0;entryDy=0;edgeStyle=orthogonalEdgeStyle;exitX=0.342;exitY=1.013;exitDx=0;exitDy=0;exitPerimeter=0;sketch=1;" edge="1" parent="1" source="QSPKhglQrRxLIh65UJ3t-4" target="QSPKhglQrRxLIh65UJ3t-2">
          <mxGeometry width="50" height="50" relative="1" as="geometry">
            <mxPoint x="290" y="410" as="sourcePoint" />
            <mxPoint x="340" y="360" as="targetPoint" />
          </mxGeometry>
        </mxCell>
        <mxCell id="QSPKhglQrRxLIh65UJ3t-21" value="" style="endArrow=classic;html=1;exitX=0.417;exitY=1;exitDx=0;exitDy=0;exitPerimeter=0;entryX=1;entryY=0.5;entryDx=0;entryDy=0;edgeStyle=orthogonalEdgeStyle;sketch=1;" edge="1" parent="1" target="QSPKhglQrRxLIh65UJ3t-2">
          <mxGeometry width="50" height="50" relative="1" as="geometry">
            <mxPoint x="540.04" y="340" as="sourcePoint" />
            <mxPoint x="470" y="450" as="targetPoint" />
          </mxGeometry>
        </mxCell>
        <mxCell id="QSPKhglQrRxLIh65UJ3t-23" value="8" style="shape=document;whiteSpace=wrap;html=1;boundedLbl=1;rounded=0;sketch=1;" vertex="1" parent="1">
          <mxGeometry x="490" y="280" width="120" height="80" as="geometry" />
        </mxCell>
      </root>
    </mxGraphModel>
  </diagram>
</mxfile>
